<svg width="47" height="47" viewBox="0 0 47 47" fill="none" xmlns="http://www.w3.org/2000/svg">
<path d="M21.5746 25.4603H2.32002C1.77319 25.4603 1.31621 25.2755 0.94909 24.9058C0.581969 24.5361 0.397125 24.0778 0.394558 23.531C0.39199 22.9842 0.576835 22.5272 0.94909 22.1601C1.32135 21.7929 1.77832 21.6094 2.32002 21.6094H21.5746V2.35481C21.5746 1.80798 21.7594 1.351 22.1291 0.98388C22.4988 0.616759 22.9571 0.431915 23.5039 0.429348C24.0507 0.42678 24.5077 0.611625 24.8748 0.98388C25.242 1.35614 25.4255 1.81311 25.4255 2.35481V21.6094H44.6801C45.2269 21.6094 45.6839 21.7942 46.051 22.1639C46.4181 22.5336 46.603 22.9919 46.6056 23.5387C46.6081 24.0855 46.4233 24.5425 46.051 24.9096C45.6788 25.2767 45.2218 25.4603 44.6801 25.4603H25.4255V44.7149C25.4255 45.2617 25.2407 45.7187 24.871 46.0858C24.5013 46.4529 24.043 46.6378 23.4962 46.6403C22.9494 46.6429 22.4924 46.4581 22.1253 46.0858C21.7582 45.7136 21.5746 45.2566 21.5746 44.7149V25.4603Z" fill="#CECECE"/>
</svg>
