<svg width="31" height="31" viewBox="0 0 31 31" fill="none" xmlns="http://www.w3.org/2000/svg">
<path d="M24.125 9.25001C25.2358 9.24936 26.3052 9.67125 27.1164 10.4301C27.9275 11.1889 28.4197 12.2279 28.493 13.3363L28.5018 13.6233V14.948C26.6555 13.4234 24.3072 12.6417 21.9155 12.7555C19.5238 12.8694 17.2604 13.8706 15.5673 15.5638C13.8741 17.2569 12.8729 19.5203 12.759 21.912C12.6452 24.3037 13.4269 26.652 14.9515 28.4983H13.6268C12.516 28.4984 11.4468 28.0761 10.6359 27.3169C9.82509 26.5578 9.33337 25.5186 9.26051 24.4103L9.25176 24.1233V13.6233C9.25158 12.5125 9.67391 11.4433 10.4331 10.6324C11.1922 9.82159 12.2314 9.32987 13.3398 9.25701L13.625 9.25001H24.125ZM19.1603 3.46451L19.2443 3.74101L20.2505 7.49826H12.7518C11.4126 7.49818 10.1241 8.00983 9.1498 8.9285C8.17549 9.84718 7.58907 11.1034 7.51051 12.4403L7.50176 12.7483V22.1073C6.60769 22.0883 5.7409 21.7959 5.01813 21.2693C4.29535 20.7427 3.7513 20.0072 3.45926 19.162L3.36826 18.8645L0.650506 8.72326C0.362591 7.65044 0.493527 6.50827 1.01675 5.52844C1.53998 4.54861 2.41632 3.80448 3.46801 3.44701L3.74451 3.36476L13.8858 0.647008C14.911 0.372162 16.0013 0.479445 16.9533 0.948867C17.9054 1.41829 18.6543 2.21783 19.0605 3.19851L19.1603 3.46451ZM30.2518 22.375C30.2518 23.4092 30.0481 24.4332 29.6523 25.3886C29.2566 26.3441 28.6765 27.2122 27.9452 27.9435C27.214 28.6747 26.3458 29.2548 25.3904 29.6506C24.4349 30.0463 23.4109 30.25 22.3768 30.25C21.3426 30.25 20.3186 30.0463 19.3631 29.6506C18.4077 29.2548 17.5395 28.6747 16.8083 27.9435C16.077 27.2122 15.497 26.3441 15.1012 25.3886C14.7054 24.4332 14.5018 23.4092 14.5018 22.375C14.5018 20.2864 15.3314 18.2834 16.8083 16.8065C18.2851 15.3297 20.2882 14.5 22.3768 14.5C24.4653 14.5 26.4684 15.3297 27.9452 16.8065C29.4221 18.2834 30.2518 20.2864 30.2518 22.375ZM23.2518 18.875C23.2518 18.6429 23.1596 18.4204 22.9955 18.2563C22.8314 18.0922 22.6088 18 22.3768 18C22.1447 18 21.9221 18.0922 21.758 18.2563C21.5939 18.4204 21.5018 18.6429 21.5018 18.875V21.5H18.8768C18.6447 21.5 18.4221 21.5922 18.258 21.7563C18.0939 21.9204 18.0018 22.1429 18.0018 22.375C18.0018 22.6071 18.0939 22.8296 18.258 22.9937C18.4221 23.1578 18.6447 23.25 18.8768 23.25H21.5018V25.875C21.5018 26.1071 21.5939 26.3296 21.758 26.4937C21.9221 26.6578 22.1447 26.75 22.3768 26.75C22.6088 26.75 22.8314 26.6578 22.9955 26.4937C23.1596 26.3296 23.2518 26.1071 23.2518 25.875V23.25H25.8768C26.1088 23.25 26.3314 23.1578 26.4955 22.9937C26.6596 22.8296 26.7518 22.6071 26.7518 22.375C26.7518 22.1429 26.6596 21.9204 26.4955 21.7563C26.3314 21.5922 26.1088 21.5 25.8768 21.5H23.2518V18.875Z" fill="#E4E4E4"/>
</svg>
