<svg width="26" height="29" viewBox="0 0 26 29" fill="none" xmlns="http://www.w3.org/2000/svg">
<path d="M22.9167 25.9166H3.08333V10.3333H22.9167M18.6667 0.416626V3.24996H7.33333V0.416626H4.5V3.24996H3.08333C1.51083 3.24996 0.25 4.51079 0.25 6.08329V25.9166C0.25 26.6681 0.548511 27.3887 1.07986 27.9201C1.61122 28.4514 2.33189 28.75 3.08333 28.75H22.9167C23.6681 28.75 24.3888 28.4514 24.9201 27.9201C25.4515 27.3887 25.75 26.6681 25.75 25.9166V6.08329C25.75 5.33185 25.4515 4.61118 24.9201 4.07982C24.3888 3.54847 23.6681 3.24996 22.9167 3.24996H21.5V0.416626M20.0833 16H13V23.0833H20.0833V16Z" fill="#E4E4E4"/>
</svg>
