<svg width="12" height="10" viewBox="0 0 12 10" fill="none" xmlns="http://www.w3.org/2000/svg">
<path d="M11.5174 0.957025C11.8174 1.24303 11.8294 1.71703 11.5434 2.01703L4.87642 9.01703C4.80638 9.09054 4.72213 9.14907 4.62879 9.18906C4.53546 9.22906 4.43497 9.24968 4.33342 9.24968C4.23188 9.24968 4.13139 9.22906 4.03805 9.18906C3.94472 9.14907 3.86047 9.09054 3.79042 9.01703L0.457424 5.51703C0.386588 5.44631 0.330624 5.36213 0.292829 5.26945C0.255034 5.17676 0.236172 5.07745 0.237357 4.97737C0.238542 4.87728 0.259749 4.77845 0.299728 4.68668C0.339706 4.59492 0.397648 4.51209 0.470138 4.44307C0.542629 4.37405 0.628201 4.32024 0.721813 4.28481C0.815424 4.24938 0.915182 4.23304 1.01521 4.23677C1.11523 4.24049 1.21349 4.2642 1.30421 4.30649C1.39493 4.34878 1.47627 4.40881 1.54342 4.48303L4.33342 7.41303L10.4574 0.983025C10.5946 0.839071 10.7833 0.755467 10.982 0.750592C11.1808 0.745717 11.3734 0.819968 11.5174 0.957025Z" fill="#373643"/>
</svg>
