<svg width="28" height="24" viewBox="0 0 28 24" fill="none" xmlns="http://www.w3.org/2000/svg">
<path fill-rule="evenodd" clip-rule="evenodd" d="M22.414 0H5.586L0 5.586V24H28V5.586L22.414 0ZM3.414 5L6.414 2H21.586L24.586 5H3.414ZM11.414 12L12.708 10.708L11.294 9.292L6.586 14H18C18.2652 14 18.5196 14.1054 18.7071 14.2929C18.8946 14.4804 19 14.7348 19 15C19 15.2652 18.8946 15.5196 18.7071 15.7071C18.5196 15.8946 18.2652 16 18 16H10V18H18C18.7956 18 19.5587 17.6839 20.1213 17.1213C20.6839 16.5587 21 15.7956 21 15C21 14.2044 20.6839 13.4413 20.1213 12.8787C19.5587 12.3161 18.7956 12 18 12H11.414Z" fill="#E6E6E6"/>
</svg>
