<svg width="25" height="31" viewBox="0 0 25 31" fill="none" xmlns="http://www.w3.org/2000/svg">
<path d="M12.5002 0.916748C10.9531 0.916748 9.46933 1.53133 8.37537 2.62529C7.28141 3.71925 6.66683 5.20299 6.66683 6.75008C6.66683 8.29718 7.28141 9.78091 8.37537 10.8749C9.46933 11.9688 10.9531 12.5834 12.5002 12.5834C14.0473 12.5834 15.531 11.9688 16.625 10.8749C17.7189 9.78091 18.3335 8.29718 18.3335 6.75008C18.3335 5.20299 17.7189 3.71925 16.625 2.62529C15.531 1.53133 14.0473 0.916748 12.5002 0.916748ZM19.7918 15.5001H5.2085C4.04817 15.5001 2.93538 15.961 2.1149 16.7815C1.29443 17.602 0.833496 18.7148 0.833496 19.8751C0.833496 23.1301 2.17225 25.7376 4.3685 27.5022C6.52975 29.2376 9.42891 30.0834 12.5002 30.0834C15.5714 30.0834 18.4706 29.2376 20.6318 27.5022C22.8252 25.7376 24.1668 23.1301 24.1668 19.8751C24.1668 18.7148 23.7059 17.602 22.8854 16.7815C22.0649 15.961 20.9522 15.5001 19.7918 15.5001Z" fill="white"/>
</svg>
