<svg width="94" height="94" viewBox="0 0 94 94" fill="none" xmlns="http://www.w3.org/2000/svg">
<path d="M46.9997 70.3333C48.3219 70.3333 49.431 69.8853 50.327 68.9893C51.223 68.0933 51.6695 66.9858 51.6663 65.6666C51.6632 64.3475 51.2152 63.24 50.3223 62.344C49.4295 61.448 48.3219 61 46.9997 61C45.6775 61 44.5699 61.448 43.677 62.344C42.7841 63.24 42.3361 64.3475 42.333 65.6666C42.3299 66.9858 42.7779 68.0949 43.677 68.994C44.5761 69.8931 45.6837 70.3395 46.9997 70.3333ZM42.333 51.6666H51.6663V23.6666H42.333V51.6666ZM46.9997 93.6667C40.5441 93.6667 34.4775 92.4409 28.7997 89.9893C23.1219 87.5378 18.183 84.2135 13.983 80.0167C9.78301 75.8198 6.45879 70.8809 4.01035 65.2C1.5619 59.5191 0.336125 53.4524 0.333014 47C0.329903 40.5475 1.55568 34.4809 4.01035 28.8C6.46501 23.1191 9.78924 18.1802 13.983 13.9833C18.1768 9.78643 23.1157 6.4622 28.7997 4.01065C34.4837 1.55909 40.5503 0.333313 46.9997 0.333313C53.449 0.333313 59.5157 1.55909 65.1997 4.01065C70.8837 6.4622 75.8226 9.78643 80.0163 13.9833C84.2101 18.1802 87.5359 23.1191 89.9937 28.8C92.4515 34.4809 93.6757 40.5475 93.6663 47C93.657 53.4524 92.4312 59.5191 89.989 65.2C87.5468 70.8809 84.2226 75.8198 80.0163 80.0167C75.8101 84.2135 70.8712 87.5393 65.1997 89.994C59.5281 92.4486 53.4615 93.6729 46.9997 93.6667ZM46.9997 84.3333C57.4219 84.3333 66.2497 80.7166 73.483 73.4833C80.7163 66.25 84.333 57.4222 84.333 47C84.333 36.5778 80.7163 27.75 73.483 20.5166C66.2497 13.2833 57.4219 9.66665 46.9997 9.66665C36.5775 9.66665 27.7497 13.2833 20.5163 20.5166C13.283 27.75 9.66635 36.5778 9.66635 47C9.66635 57.4222 13.283 66.25 20.5163 73.4833C27.7497 80.7166 36.5775 84.3333 46.9997 84.3333Z" fill="#373643"/>
</svg>
