<svg width="27" height="27" viewBox="0 0 27 27" fill="none" xmlns="http://www.w3.org/2000/svg">
<path d="M0 3.66667C0 2.69421 0.386308 1.76158 1.07394 1.07394C1.76158 0.386308 2.69421 0 3.66667 0H20.3333C21.3058 0 22.2384 0.386308 22.9261 1.07394C23.6137 1.76158 24 2.69421 24 3.66667V12.0293C23.1808 11.5055 22.2794 11.1233 21.3333 10.8987V3.66667C21.3333 3.40145 21.228 3.1471 21.0404 2.95956C20.8529 2.77202 20.5985 2.66667 20.3333 2.66667H3.66667C3.40145 2.66667 3.1471 2.77202 2.95956 2.95956C2.77202 3.1471 2.66667 3.40145 2.66667 3.66667V20.3333C2.66667 20.8853 3.11467 21.3333 3.66667 21.3333H10.8987C11.1253 22.2933 11.512 23.1933 12.0293 24H3.66667C2.69421 24 1.76158 23.6137 1.07394 22.9261C0.386308 22.2384 0 21.3058 0 20.3333V3.66667ZM26.6667 19.3333C26.6667 17.3884 25.894 15.5231 24.5188 14.1479C23.1435 12.7726 21.2783 12 19.3333 12C17.3884 12 15.5231 12.7726 14.1479 14.1479C12.7726 15.5231 12 17.3884 12 19.3333C12 21.2783 12.7726 23.1435 14.1479 24.5188C15.5231 25.894 17.3884 26.6667 19.3333 26.6667C21.2783 26.6667 23.1435 25.894 24.5188 24.5188C25.894 23.1435 26.6667 21.2783 26.6667 19.3333ZM20 20L20.0013 23.3373C20.0013 23.5141 19.9311 23.6837 19.8061 23.8087C19.681 23.9338 19.5115 24.004 19.3347 24.004C19.1579 24.004 18.9883 23.9338 18.8633 23.8087C18.7382 23.6837 18.668 23.5141 18.668 23.3373V20H15.328C15.1512 20 14.9816 19.9298 14.8566 19.8047C14.7316 19.6797 14.6613 19.5101 14.6613 19.3333C14.6613 19.1565 14.7316 18.987 14.8566 18.8619C14.9816 18.7369 15.1512 18.6667 15.328 18.6667H18.6667V15.3333C18.6667 15.1565 18.7369 14.987 18.8619 14.8619C18.987 14.7369 19.1565 14.6667 19.3333 14.6667C19.5101 14.6667 19.6797 14.7369 19.8047 14.8619C19.9298 14.987 20 15.1565 20 15.3333V18.6667H23.3293C23.5061 18.6667 23.6757 18.7369 23.8007 18.8619C23.9258 18.987 23.996 19.1565 23.996 19.3333C23.996 19.5101 23.9258 19.6797 23.8007 19.8047C23.6757 19.9298 23.5061 20 23.3293 20H20Z" fill="#E6E6E6"/>
</svg>
