<svg width="34" height="34" viewBox="0 0 34 34" fill="none" xmlns="http://www.w3.org/2000/svg">
<path d="M32.1442 26.0242L33.7592 24.6075L32.3425 22.1567L30.2883 22.8508C29.835 22.4683 29.325 22.1708 28.7583 21.9583L28.3333 19.8333H25.5L25.075 21.9442C24.5083 22.1567 23.9983 22.4542 23.545 22.8367L21.4908 22.1425L20.0742 24.5933L21.6892 26.01C21.5758 26.7183 21.5758 27.0867 21.6892 27.795L20.0742 29.2117L21.4908 31.6625L23.545 30.9683C23.9983 31.3508 24.5083 31.6483 25.075 31.8608L25.5 34H28.3333L28.7583 31.8892C29.325 31.6767 29.835 31.3792 30.2883 30.9967L32.3425 31.6908L33.7592 29.24L32.1442 27.8233C32.2575 27.1008 32.2575 26.7325 32.1442 26.0242ZM26.9167 29.75C25.3583 29.75 24.0833 28.475 24.0833 26.9167C24.0833 25.3583 25.3583 24.0833 26.9167 24.0833C28.475 24.0833 29.75 25.3583 29.75 26.9167C29.75 28.475 28.475 29.75 26.9167 29.75ZM15.5833 9.91667V17.5808L18.9267 20.9242L20.4 18.3883L18.4167 16.4192V9.91667H15.5833ZM29.75 17C29.75 13.6185 28.4067 10.3755 26.0156 7.98439C23.6245 5.5933 20.3815 4.25 17 4.25C12.9908 4.25 9.42083 6.12 7.08333 9.01V5.66667H4.25V14.1667H12.75V11.3333H8.86833C9.78205 10.0232 10.9983 8.95278 12.4139 8.21291C13.8295 7.47305 15.4027 7.08556 17 7.08333C22.4683 7.08333 26.9167 11.5317 26.9167 17H29.75ZM15.385 26.7892C11.1492 26.095 7.80583 22.6808 7.19667 18.4167H4.335C5.04333 24.7917 10.4408 29.75 17 29.75H17.0992L15.385 26.7892Z" fill="#E6E6E6"/>
</svg>
