<svg width="30" height="30" viewBox="0 0 30 30" fill="none" xmlns="http://www.w3.org/2000/svg">
<path d="M28.1442 22.0242L29.7592 20.6075L28.3425 18.1567L26.2883 18.8508C25.835 18.4683 25.325 18.1708 24.7583 17.9583L24.3333 15.8333H21.5L21.075 17.9442C20.5083 18.1567 19.9983 18.4542 19.545 18.8367L17.4908 18.1425L16.0742 20.5933L17.6892 22.01C17.5758 22.7183 17.5758 23.0867 17.6892 23.795L16.0742 25.2117L17.4908 27.6625L19.545 26.9683C19.9983 27.3508 20.5083 27.6483 21.075 27.8608L21.5 30H24.3333L24.7583 27.8892C25.325 27.6767 25.835 27.3792 26.2883 26.9967L28.3425 27.6908L29.7592 25.24L28.1442 23.8233C28.2575 23.1008 28.2575 22.7325 28.1442 22.0242ZM22.9167 25.75C21.3583 25.75 20.0833 24.475 20.0833 22.9167C20.0833 21.3583 21.3583 20.0833 22.9167 20.0833C24.475 20.0833 25.75 21.3583 25.75 22.9167C25.75 24.475 24.475 25.75 22.9167 25.75ZM11.5833 5.91667V13.5808L14.9267 16.9242L16.4 14.3883L14.4167 12.4192V5.91667H11.5833ZM25.75 13C25.75 9.61849 24.4067 6.37548 22.0156 3.98439C19.6245 1.5933 16.3815 0.25 13 0.25C8.99083 0.25 5.42083 2.12 3.08333 5.01V1.66667H0.25V10.1667H8.75V7.33333H4.86833C5.78205 6.02319 6.9983 4.95278 8.41391 4.21291C9.82952 3.47305 11.4027 3.08556 13 3.08333C18.4683 3.08333 22.9167 7.53167 22.9167 13H25.75ZM11.385 22.7892C7.14917 22.095 3.80583 18.6808 3.19667 14.4167H0.335C1.04333 20.7917 6.44083 25.75 13 25.75H13.0992L11.385 22.7892Z" fill="#E6E6E6"/>
</svg>
