<svg width="25" height="25" viewBox="0 0 25 25" fill="none" xmlns="http://www.w3.org/2000/svg">
<path d="M12.5001 2.2907C13.8539 0.936853 15.6901 0.17627 17.6048 0.17627C19.5194 0.17627 21.3556 0.936853 22.7094 2.2907C24.0633 3.64455 24.8239 5.48076 24.8239 7.39539C24.8239 9.31002 24.0633 11.1462 22.7094 12.5001L12.5001 22.7094C11.8297 23.3798 11.0339 23.9116 10.158 24.2744C9.28216 24.6372 8.34342 24.8239 7.39539 24.8239C5.48076 24.8239 3.64455 24.0633 2.2907 22.7094C0.936853 21.3556 0.17627 19.5194 0.17627 17.6048C0.17627 15.6901 0.936853 13.8539 2.2907 12.5001L12.5001 2.2907ZM16.8767 15.4164L21.2492 11.044C22.2093 10.0757 22.7468 8.76646 22.744 7.40285C22.7412 6.03924 22.1984 4.73226 21.2343 3.7679C20.2702 2.80355 18.9634 2.26035 17.5998 2.25717C16.2362 2.25399 14.9268 2.7911 13.9583 3.75095L9.5837 8.12345L16.8767 15.4164ZM12.199 18.3865C12.2947 18.2906 12.3706 18.1768 12.4224 18.0515C12.4742 17.9263 12.5007 17.7921 12.5007 17.6566C12.5006 17.5211 12.4738 17.387 12.4218 17.2618C12.3699 17.1367 12.2938 17.023 12.1979 16.9272C12.102 16.8315 11.9882 16.7556 11.863 16.7038C11.7378 16.652 11.6036 16.6254 11.4681 16.6255C11.3326 16.6256 11.1984 16.6524 11.0733 16.7044C10.9481 16.7563 10.8344 16.8324 10.7387 16.9283L7.64495 20.022C7.5492 20.1179 7.47328 20.2317 7.42152 20.3569C7.36975 20.4821 7.34316 20.6163 7.34325 20.7518C7.34345 21.0255 7.45234 21.2879 7.64598 21.4812C7.83962 21.6746 8.10215 21.7831 8.3758 21.7829C8.64946 21.7827 8.91183 21.6738 9.1052 21.4802L12.199 18.3865Z" fill="white"/>
</svg>
