<svg width="84" height="84" viewBox="0 0 84 84" fill="none" xmlns="http://www.w3.org/2000/svg">
<path d="M6.33731 33.4833C2.72664 37.0894 0.588763 41.9112 0.340691 47.0082C0.0926191 52.1052 1.75214 57.1118 4.99556 61.0514C8.23898 64.9911 12.8337 67.5813 17.8834 68.3167C22.9331 69.0521 28.0758 67.8801 32.3081 65.0292L50.0415 82.7667C50.6141 83.3523 51.3883 83.6977 52.2066 83.7328C53.025 83.7678 53.8259 83.4897 54.4464 82.9551C55.067 82.4206 55.4606 81.6697 55.5471 80.8552C55.6337 80.0407 55.4067 79.2239 54.9123 78.5708L54.5998 78.2083L37.029 60.6333C40.2424 56.5131 41.7639 51.3226 41.2832 46.1196C40.8025 40.9165 38.3559 36.0926 34.442 32.6308C30.5281 29.169 25.4415 27.3299 20.2187 27.4883C14.9959 27.6467 10.0342 29.7907 6.33731 33.4833ZM61.3873 60.7542C60.4498 66.1167 59.104 70.9875 57.4206 75.1458L57.5456 75.2625L58.0623 75.8458C58.979 77.075 59.4956 78.4459 59.6373 79.8125C68.1567 75.8535 75.0937 69.1396 79.329 60.7542H61.3873ZM43.0415 60.75L52.5581 70.2792C53.3998 67.7792 54.1456 64.9958 54.7665 61.9792L55.004 60.7542L43.0415 60.75ZM30.8081 38.0417C32.1481 39.3422 33.2161 40.8961 33.9499 42.6132C34.6838 44.3302 35.0688 46.1761 35.0827 48.0433C35.0965 49.9106 34.7389 51.7619 34.0307 53.4897C33.3224 55.2174 32.2776 56.7871 30.9571 58.1073C29.6366 59.4276 28.0667 60.472 26.3388 61.1799C24.6109 61.8878 22.7595 62.2451 20.8922 62.2308C19.025 62.2166 17.1792 61.8311 15.4623 61.0969C13.7454 60.3627 12.1917 59.2944 10.8915 57.9542C8.2686 55.3093 6.80038 51.733 6.80818 48.0081C6.81597 44.2831 8.29914 40.713 10.9331 38.0791C13.567 35.4452 17.1371 33.962 20.862 33.9542C24.5869 33.9464 28.1632 35.4146 30.8081 38.0375M56.3748 33.6667H40.9581C43.0792 36.6485 44.5127 40.0636 45.1554 43.6661C45.7981 47.2685 45.6339 50.9686 44.6748 54.5H55.9665C56.6945 48.2611 56.8785 41.9708 56.5165 35.7L56.3748 33.6667ZM62.654 33.6667C63.0935 39.7996 63.0475 45.9577 62.5165 52.0833L62.279 54.5H81.8748C83.9849 47.7574 84.3547 40.5906 82.9498 33.6667H62.654ZM53.9248 2.02917C57.5956 7.65418 60.3248 15.9 61.7706 25.5875L62.029 27.4208H81.154C78.9975 21.6659 75.5983 16.4573 71.1986 12.1664C66.7989 7.87541 61.5069 4.60761 55.6998 2.59584L54.4331 2.17917L53.9248 2.02917ZM42.1081 0.341675C36.7873 0.341675 31.4373 10.2667 28.9498 24.6708C30.8873 25.3375 32.7498 26.2542 34.4956 27.4125L55.6956 27.4167C53.4456 11.5458 47.7581 0.341675 42.1081 0.341675ZM30.2873 2.02917C24.0954 3.86873 18.4141 7.11856 13.6897 11.5235C8.96522 15.9284 5.32613 21.3685 3.05815 27.4167H7.20398C11.8047 24.3648 17.2963 22.9446 22.7998 23.3833C24.1415 15.6417 26.3248 8.92501 29.1623 3.88334L29.8373 2.73751L30.2873 2.02917Z" fill="#CECECE"/>
</svg>
