<svg width="37" height="37" viewBox="0 0 37 37" fill="none" xmlns="http://www.w3.org/2000/svg">
<path d="M18.5 18.5C21.9057 18.5 24.6666 15.7391 24.6666 12.3334C24.6666 8.9276 21.9057 6.16669 18.5 6.16669C15.0942 6.16669 12.3333 8.9276 12.3333 12.3334C12.3333 15.7391 15.0942 18.5 18.5 18.5Z" fill="#E6E6E6"/>
<path d="M8.22943 26.7017C9.24847 22.3974 13.5235 20.0417 17.9496 20.0417H19.0504C23.4765 20.0417 27.7516 22.3958 28.7706 26.7017C28.9679 27.5357 29.1252 28.4083 29.2131 29.2948C29.2978 30.1427 28.601 30.8334 27.75 30.8334H9.25001C8.39901 30.8334 7.70218 30.1411 7.78697 29.2948C7.87485 28.4083 8.0321 27.5357 8.22943 26.7017Z" fill="#E6E6E6"/>
</svg>
