<svg width="645" height="202" viewBox="0 0 645 202" fill="none" xmlns="http://www.w3.org/2000/svg">
<g filter="url(#filter0_f_152_1386)">
<path d="M38.2475 154V64.4H63.5915V154H38.2475ZM128.087 155.152C120.492 155.152 113.751 153.616 107.863 150.544C101.975 147.472 97.3238 143.248 93.9105 137.872C90.5825 132.411 88.9185 126.181 88.9185 119.184C88.9185 112.187 90.5825 106 93.9105 100.624C97.3238 95.248 101.975 91.0667 107.863 88.08C113.751 85.008 120.492 83.472 128.087 83.472C135.681 83.472 142.423 85.008 148.311 88.08C154.284 91.0667 158.935 95.248 162.263 100.624C165.591 106 167.255 112.187 167.255 119.184C167.255 126.181 165.591 132.411 162.263 137.872C158.935 143.248 154.284 147.472 148.311 150.544C142.423 153.616 135.681 155.152 128.087 155.152ZM128.087 135.824C130.903 135.824 133.377 135.184 135.511 133.904C137.729 132.624 139.479 130.747 140.759 128.272C142.039 125.712 142.679 122.683 142.679 119.184C142.679 115.685 142.039 112.741 140.759 110.352C139.479 107.877 137.729 106 135.511 104.72C133.377 103.44 130.903 102.8 128.087 102.8C125.356 102.8 122.881 103.44 120.663 104.72C118.529 106 116.78 107.877 115.415 110.352C114.135 112.741 113.495 115.685 113.495 119.184C113.495 122.683 114.135 125.712 115.415 128.272C116.78 130.747 118.529 132.624 120.663 133.904C122.881 135.184 125.356 135.824 128.087 135.824ZM204.42 154V84.496H176.9V64.4H257.156V84.496H229.764V154H204.42ZM276.871 154V84.624H300.039V104.848L296.583 99.088C298.631 93.8827 301.959 90 306.567 87.44C311.175 84.7947 316.764 83.472 323.335 83.472V105.36C322.225 105.189 321.244 105.104 320.391 105.104C319.623 105.019 318.769 104.976 317.831 104.976C312.881 104.976 308.871 106.341 305.799 109.072C302.727 111.717 301.191 116.069 301.191 122.128V154H276.871ZM384.414 154V141.072L382.75 137.872V114.064C382.75 110.224 381.555 107.28 379.166 105.232C376.862 103.099 373.15 102.032 368.03 102.032C364.702 102.032 361.331 102.587 357.918 103.696C354.504 104.72 351.603 106.171 349.214 108.048L341.022 91.536C344.947 88.976 349.64 87.0133 355.102 85.648C360.648 84.1973 366.152 83.472 371.614 83.472C382.878 83.472 391.582 86.0747 397.726 91.28C403.955 96.4 407.07 104.464 407.07 115.472V154H384.414ZM363.934 155.152C358.387 155.152 353.694 154.213 349.854 152.336C346.014 150.459 343.07 147.899 341.022 144.656C339.059 141.413 338.078 137.787 338.078 133.776C338.078 129.509 339.144 125.84 341.278 122.768C343.496 119.611 346.867 117.221 351.39 115.6C355.912 113.893 361.758 113.04 368.926 113.04H385.31V125.712H372.254C368.328 125.712 365.555 126.352 363.934 127.632C362.398 128.912 361.63 130.619 361.63 132.752C361.63 134.885 362.44 136.592 364.062 137.872C365.683 139.152 367.902 139.792 370.718 139.792C373.363 139.792 375.752 139.152 377.886 137.872C380.104 136.507 381.726 134.459 382.75 131.728L386.078 140.688C384.798 145.467 382.28 149.093 378.526 151.568C374.856 153.957 369.992 155.152 363.934 155.152ZM471.552 155.152C463.872 155.152 457.002 153.616 450.944 150.544C444.97 147.472 440.277 143.248 436.864 137.872C433.45 132.411 431.744 126.181 431.744 119.184C431.744 112.187 433.45 106 436.864 100.624C440.277 95.248 444.97 91.0667 450.944 88.08C457.002 85.008 463.872 83.472 471.552 83.472C479.402 83.472 486.186 85.136 491.904 88.464C497.621 91.792 501.674 96.4853 504.064 102.544L485.248 112.144C483.626 108.901 481.621 106.555 479.232 105.104C476.842 103.568 474.24 102.8 471.424 102.8C468.608 102.8 466.048 103.44 463.744 104.72C461.44 106 459.605 107.877 458.24 110.352C456.96 112.741 456.32 115.685 456.32 119.184C456.32 122.768 456.96 125.797 458.24 128.272C459.605 130.747 461.44 132.624 463.744 133.904C466.048 135.184 468.608 135.824 471.424 135.824C474.24 135.824 476.842 135.099 479.232 133.648C481.621 132.112 483.626 129.723 485.248 126.48L504.064 136.08C501.674 142.139 497.621 146.832 491.904 150.16C486.186 153.488 479.402 155.152 471.552 155.152ZM545.994 141.2L546.634 112.144L574.922 84.624H603.722L572.362 117.008L559.946 126.992L545.994 141.2ZM525.77 154V59.024H550.09V154H525.77ZM576.714 154L555.466 127.376L570.57 108.688L606.154 154H576.714Z" fill="#EEEEEE"/>
<g filter="url(#filter1_d_152_1386)">
<path d="M92.6489 169.094C111.897 187.115 143.103 187.115 162.351 169.094C164.101 167.456 166.938 167.456 168.688 169.094C170.437 170.732 170.437 173.389 168.688 175.027C145.94 196.324 109.06 196.324 86.3123 175.027C84.5626 173.389 84.5626 170.732 86.3123 169.094C88.0621 167.456 90.8991 167.456 92.6489 169.094Z" fill="#EEEEEE"/>
<path d="M105.322 157.229C117.571 168.697 137.429 168.697 149.678 157.229C151.428 155.59 154.265 155.59 156.015 157.229C157.764 158.867 157.764 161.523 156.015 163.161C140.266 177.906 114.734 177.906 98.9855 163.161C97.2357 161.523 97.2357 158.867 98.9855 157.229C100.735 155.59 103.572 155.59 105.322 157.229Z" fill="#EEEEEE"/>
<path d="M162.351 70.9059C143.103 52.8849 111.897 52.8849 92.6489 70.9059C90.8991 72.5441 88.0621 72.5441 86.3123 70.9059C84.5626 69.2676 84.5626 66.6114 86.3123 64.9731C109.06 43.6756 145.94 43.6756 168.688 64.9731C170.437 66.6114 170.437 69.2676 168.688 70.9059C166.938 72.5441 164.101 72.5441 162.351 70.9059Z" fill="#EEEEEE"/>
<path d="M149.678 82.7713C137.429 71.3034 117.571 71.3034 105.322 82.7713C103.572 84.4096 100.735 84.4096 98.9855 82.7713C97.2357 81.133 97.2357 78.4769 98.9855 76.8386C114.734 62.0941 140.266 62.0941 156.015 76.8386C157.764 78.4769 157.764 81.133 156.015 82.7713C154.265 84.4096 151.428 84.4096 149.678 82.7713Z" fill="#EEEEEE"/>
<circle cx="128" cy="119.5" r="5.5" fill="#EEEEEE"/>
</g>
<path fill-rule="evenodd" clip-rule="evenodd" d="M520.644 14.9594C509.831 24.923 509.831 41.077 520.644 51.0406C521.626 51.9463 521.626 53.4149 520.644 54.3207C519.661 55.2264 518.067 55.2264 517.084 54.3207C504.305 42.5456 504.305 23.4544 517.084 11.6793C518.067 10.7736 519.661 10.7736 520.644 11.6793C521.626 12.5851 521.626 14.0537 520.644 14.9594ZM527.763 21.5196C520.882 27.8601 520.882 38.1399 527.763 44.4804C528.746 45.3861 528.746 46.8547 527.763 47.7605C526.78 48.6662 525.186 48.6662 524.203 47.7605C515.356 39.6085 515.356 26.3915 524.203 18.2395C525.186 17.3338 526.78 17.3338 527.763 18.2395C528.746 19.1453 528.746 20.6139 527.763 21.5196Z" fill="#EEEEEE"/>
<path fill-rule="evenodd" clip-rule="evenodd" d="M555.356 14.9594C566.169 24.923 566.169 41.077 555.356 51.0406C554.374 51.9463 554.374 53.4149 555.356 54.3207C556.339 55.2264 557.933 55.2264 558.916 54.3207C571.695 42.5456 571.695 23.4544 558.916 11.6793C557.933 10.7736 556.339 10.7736 555.356 11.6793C554.374 12.5851 554.374 14.0537 555.356 14.9594ZM548.237 21.5196C555.118 27.8601 555.118 38.1399 548.237 44.4804C547.254 45.3861 547.254 46.8547 548.237 47.7605C549.22 48.6662 550.814 48.6662 551.797 47.7605C560.644 39.6085 560.644 26.3915 551.797 18.2395C550.814 17.3338 549.22 17.3338 548.237 18.2395C547.254 19.1453 547.254 20.6139 548.237 21.5196Z" fill="#EEEEEE"/>
</g>
<g filter="url(#filter2_i_152_1386)">
<path d="M92.6489 169.094C111.897 187.115 143.103 187.115 162.351 169.094C164.101 167.456 166.938 167.456 168.688 169.094C170.437 170.732 170.437 173.389 168.688 175.027C145.94 196.324 109.06 196.324 86.3123 175.027C84.5626 173.389 84.5626 170.732 86.3123 169.094C88.0621 167.456 90.8991 167.456 92.6489 169.094Z" fill="#EEEEEE"/>
<path d="M105.322 157.229C117.571 168.697 137.429 168.697 149.678 157.229C151.428 155.59 154.265 155.59 156.015 157.229C157.764 158.867 157.764 161.523 156.015 163.161C140.266 177.906 114.734 177.906 98.9855 163.161C97.2357 161.523 97.2357 158.867 98.9855 157.229C100.735 155.59 103.572 155.59 105.322 157.229Z" fill="#EEEEEE"/>
<path d="M162.351 70.9059C143.103 52.8849 111.897 52.8849 92.6489 70.9059C90.8991 72.5441 88.0621 72.5441 86.3123 70.9059C84.5626 69.2676 84.5626 66.6114 86.3123 64.9731C109.06 43.6756 145.94 43.6756 168.688 64.9731C170.437 66.6114 170.437 69.2676 168.688 70.9059C166.938 72.5441 164.101 72.5441 162.351 70.9059Z" fill="#EEEEEE"/>
<path d="M149.678 82.7713C137.429 71.3034 117.571 71.3034 105.322 82.7713C103.572 84.4096 100.735 84.4096 98.9855 82.7713C97.2357 81.133 97.2357 78.4769 98.9855 76.8386C114.734 62.0941 140.266 62.0941 156.015 76.8386C157.764 78.4769 157.764 81.133 156.015 82.7713C154.265 84.4096 151.428 84.4096 149.678 82.7713Z" fill="#EEEEEE"/>
<circle cx="128" cy="119.5" r="5.5" fill="#EEEEEE"/>
</g>
<g filter="url(#filter3_i_152_1386)">
<path fill-rule="evenodd" clip-rule="evenodd" d="M520.644 14.9594C509.831 24.923 509.831 41.077 520.644 51.0406C521.626 51.9463 521.626 53.4149 520.644 54.3207C519.661 55.2264 518.067 55.2264 517.084 54.3207C504.305 42.5456 504.305 23.4544 517.084 11.6793C518.067 10.7736 519.661 10.7736 520.644 11.6793C521.626 12.5851 521.626 14.0537 520.644 14.9594ZM527.763 21.5196C520.882 27.8601 520.882 38.1399 527.763 44.4804C528.746 45.3861 528.746 46.8547 527.763 47.7605C526.78 48.6662 525.186 48.6662 524.203 47.7605C515.356 39.6085 515.356 26.3915 524.203 18.2395C525.186 17.3338 526.78 17.3338 527.763 18.2395C528.746 19.1453 528.746 20.6139 527.763 21.5196Z" fill="#EEEEEE"/>
<path fill-rule="evenodd" clip-rule="evenodd" d="M555.356 14.9594C566.169 24.923 566.169 41.077 555.356 51.0406C554.374 51.9463 554.374 53.4149 555.356 54.3207C556.339 55.2264 557.933 55.2264 558.916 54.3207C571.695 42.5456 571.695 23.4544 558.916 11.6793C557.933 10.7736 556.339 10.7736 555.356 11.6793C554.374 12.5851 554.374 14.0537 555.356 14.9594ZM548.237 21.5196C555.118 27.8601 555.118 38.1399 548.237 44.4804C547.254 45.3861 547.254 46.8547 548.237 47.7605C549.22 48.6662 550.814 48.6662 551.797 47.7605C560.644 39.6085 560.644 26.3915 551.797 18.2395C550.814 17.3338 549.22 17.3338 548.237 18.2395C547.254 19.1453 547.254 20.6139 548.237 21.5196Z" fill="#EEEEEE"/>
<path d="M528.125 32.5C528.125 30.6531 528.644 28.8434 529.621 27.2764C530.599 25.7094 531.996 24.4479 533.654 23.6351C535.313 22.8224 537.166 22.491 539.003 22.6786C540.84 22.8662 542.588 23.5653 544.048 24.6964C545.508 25.8275 546.622 27.3454 547.262 29.0777C547.903 30.8099 548.045 32.687 547.672 34.4958C547.299 36.3047 546.426 37.9727 545.153 39.3105C543.88 40.6483 542.257 41.6022 540.469 42.0639V69.5312C540.469 70.186 540.209 70.8139 539.746 71.2769C539.283 71.7399 538.655 72 538 72C537.345 72 536.717 71.7399 536.254 71.2769C535.791 70.8139 535.531 70.186 535.531 69.5312V42.0639C533.411 41.5165 531.533 40.28 530.192 38.5487C528.852 36.8174 528.124 34.6897 528.125 32.5Z" fill="#EEEEEE"/>
</g>
<g filter="url(#filter4_di_152_1386)">
<path d="M38.2475 154V64.4H63.5915V154H38.2475ZM128.087 155.152C120.492 155.152 113.751 153.616 107.863 150.544C101.975 147.472 97.3238 143.248 93.9105 137.872C90.5825 132.411 88.9185 126.181 88.9185 119.184C88.9185 112.187 90.5825 106 93.9105 100.624C97.3238 95.248 101.975 91.0667 107.863 88.08C113.751 85.008 120.492 83.472 128.087 83.472C135.681 83.472 142.423 85.008 148.311 88.08C154.284 91.0667 158.935 95.248 162.263 100.624C165.591 106 167.255 112.187 167.255 119.184C167.255 126.181 165.591 132.411 162.263 137.872C158.935 143.248 154.284 147.472 148.311 150.544C142.423 153.616 135.681 155.152 128.087 155.152ZM128.087 135.824C130.903 135.824 133.377 135.184 135.511 133.904C137.729 132.624 139.479 130.747 140.759 128.272C142.039 125.712 142.679 122.683 142.679 119.184C142.679 115.685 142.039 112.741 140.759 110.352C139.479 107.877 137.729 106 135.511 104.72C133.377 103.44 130.903 102.8 128.087 102.8C125.356 102.8 122.881 103.44 120.663 104.72C118.529 106 116.78 107.877 115.415 110.352C114.135 112.741 113.495 115.685 113.495 119.184C113.495 122.683 114.135 125.712 115.415 128.272C116.78 130.747 118.529 132.624 120.663 133.904C122.881 135.184 125.356 135.824 128.087 135.824ZM204.42 154V84.496H176.9V64.4H257.156V84.496H229.764V154H204.42ZM276.871 154V84.624H300.039V104.848L296.583 99.088C298.631 93.8827 301.959 90 306.567 87.44C311.175 84.7947 316.764 83.472 323.335 83.472V105.36C322.225 105.189 321.244 105.104 320.391 105.104C319.623 105.019 318.769 104.976 317.831 104.976C312.881 104.976 308.871 106.341 305.799 109.072C302.727 111.717 301.191 116.069 301.191 122.128V154H276.871ZM384.414 154V141.072L382.75 137.872V114.064C382.75 110.224 381.555 107.28 379.166 105.232C376.862 103.099 373.15 102.032 368.03 102.032C364.702 102.032 361.331 102.587 357.918 103.696C354.504 104.72 351.603 106.171 349.214 108.048L341.022 91.536C344.947 88.976 349.64 87.0133 355.102 85.648C360.648 84.1973 366.152 83.472 371.614 83.472C382.878 83.472 391.582 86.0747 397.726 91.28C403.955 96.4 407.07 104.464 407.07 115.472V154H384.414ZM363.934 155.152C358.387 155.152 353.694 154.213 349.854 152.336C346.014 150.459 343.07 147.899 341.022 144.656C339.059 141.413 338.078 137.787 338.078 133.776C338.078 129.509 339.144 125.84 341.278 122.768C343.496 119.611 346.867 117.221 351.39 115.6C355.912 113.893 361.758 113.04 368.926 113.04H385.31V125.712H372.254C368.328 125.712 365.555 126.352 363.934 127.632C362.398 128.912 361.63 130.619 361.63 132.752C361.63 134.885 362.44 136.592 364.062 137.872C365.683 139.152 367.902 139.792 370.718 139.792C373.363 139.792 375.752 139.152 377.886 137.872C380.104 136.507 381.726 134.459 382.75 131.728L386.078 140.688C384.798 145.467 382.28 149.093 378.526 151.568C374.856 153.957 369.992 155.152 363.934 155.152ZM471.552 155.152C463.872 155.152 457.002 153.616 450.944 150.544C444.97 147.472 440.277 143.248 436.864 137.872C433.45 132.411 431.744 126.181 431.744 119.184C431.744 112.187 433.45 106 436.864 100.624C440.277 95.248 444.97 91.0667 450.944 88.08C457.002 85.008 463.872 83.472 471.552 83.472C479.402 83.472 486.186 85.136 491.904 88.464C497.621 91.792 501.674 96.4853 504.064 102.544L485.248 112.144C483.626 108.901 481.621 106.555 479.232 105.104C476.842 103.568 474.24 102.8 471.424 102.8C468.608 102.8 466.048 103.44 463.744 104.72C461.44 106 459.605 107.877 458.24 110.352C456.96 112.741 456.32 115.685 456.32 119.184C456.32 122.768 456.96 125.797 458.24 128.272C459.605 130.747 461.44 132.624 463.744 133.904C466.048 135.184 468.608 135.824 471.424 135.824C474.24 135.824 476.842 135.099 479.232 133.648C481.621 132.112 483.626 129.723 485.248 126.48L504.064 136.08C501.674 142.139 497.621 146.832 491.904 150.16C486.186 153.488 479.402 155.152 471.552 155.152ZM545.994 141.2L546.634 112.144L574.922 84.624H603.722L572.362 117.008L559.946 126.992L545.994 141.2ZM525.77 154V59.024H550.09V154H525.77ZM576.714 154L555.466 127.376L570.57 108.688L606.154 154H576.714Z" fill="#EEEEEE"/>
</g>
<defs>
<filter id="filter0_f_152_1386" x="28.0475" y="0.8" width="588.307" height="200.4" filterUnits="userSpaceOnUse" color-interpolation-filters="sRGB">
<feFlood flood-opacity="0" result="BackgroundImageFix"/>
<feBlend mode="normal" in="SourceGraphic" in2="BackgroundImageFix" result="shape"/>
<feGaussianBlur stdDeviation="5.1" result="effect1_foregroundBlur_152_1386"/>
</filter>
<filter id="filter1_d_152_1386" x="81" y="49" width="93" height="150" filterUnits="userSpaceOnUse" color-interpolation-filters="sRGB">
<feFlood flood-opacity="0" result="BackgroundImageFix"/>
<feColorMatrix in="SourceAlpha" type="matrix" values="0 0 0 0 0 0 0 0 0 0 0 0 0 0 0 0 0 0 127 0" result="hardAlpha"/>
<feOffset dy="4"/>
<feGaussianBlur stdDeviation="2"/>
<feComposite in2="hardAlpha" operator="out"/>
<feColorMatrix type="matrix" values="0 0 0 0 0 0 0 0 0 0 0 0 0 0 0 0 0 0 0.25 0"/>
<feBlend mode="normal" in2="BackgroundImageFix" result="effect1_dropShadow_152_1386"/>
<feBlend mode="normal" in="SourceGraphic" in2="effect1_dropShadow_152_1386" result="shape"/>
</filter>
<filter id="filter2_i_152_1386" x="83" y="47" width="87" height="144" filterUnits="userSpaceOnUse" color-interpolation-filters="sRGB">
<feFlood flood-opacity="0" result="BackgroundImageFix"/>
<feBlend mode="normal" in="SourceGraphic" in2="BackgroundImageFix" result="shape"/>
<feColorMatrix in="SourceAlpha" type="matrix" values="0 0 0 0 0 0 0 0 0 0 0 0 0 0 0 0 0 0 127 0" result="hardAlpha"/>
<feOffset dx="-2" dy="-2"/>
<feGaussianBlur stdDeviation="1"/>
<feComposite in2="hardAlpha" operator="arithmetic" k2="-1" k3="1"/>
<feColorMatrix type="matrix" values="0 0 0 0 0 0 0 0 0 0 0 0 0 0 0 0 0 0 0.25 0"/>
<feBlend mode="normal" in2="shape" result="effect1_innerShadow_152_1386"/>
</filter>
<filter id="filter3_i_152_1386" x="505.5" y="9" width="63" height="63" filterUnits="userSpaceOnUse" color-interpolation-filters="sRGB">
<feFlood flood-opacity="0" result="BackgroundImageFix"/>
<feBlend mode="normal" in="SourceGraphic" in2="BackgroundImageFix" result="shape"/>
<feColorMatrix in="SourceAlpha" type="matrix" values="0 0 0 0 0 0 0 0 0 0 0 0 0 0 0 0 0 0 127 0" result="hardAlpha"/>
<feOffset dx="-2" dy="-2"/>
<feGaussianBlur stdDeviation="1"/>
<feComposite in2="hardAlpha" operator="arithmetic" k2="-1" k3="1"/>
<feColorMatrix type="matrix" values="0 0 0 0 0 0 0 0 0 0 0 0 0 0 0 0 0 0 0.25 0"/>
<feBlend mode="normal" in2="shape" result="effect1_innerShadow_152_1386"/>
</filter>
<filter id="filter4_di_152_1386" x="0.347496" y="21.124" width="643.707" height="171.928" filterUnits="userSpaceOnUse" color-interpolation-filters="sRGB">
<feFlood flood-opacity="0" result="BackgroundImageFix"/>
<feColorMatrix in="SourceAlpha" type="matrix" values="0 0 0 0 0 0 0 0 0 0 0 0 0 0 0 0 0 0 127 0" result="hardAlpha"/>
<feOffset/>
<feGaussianBlur stdDeviation="18.95"/>
<feComposite in2="hardAlpha" operator="out"/>
<feColorMatrix type="matrix" values="0 0 0 0 0.933333 0 0 0 0 0.933333 0 0 0 0 0.933333 0 0 0 0.62 0"/>
<feBlend mode="normal" in2="BackgroundImageFix" result="effect1_dropShadow_152_1386"/>
<feBlend mode="normal" in="SourceGraphic" in2="effect1_dropShadow_152_1386" result="shape"/>
<feColorMatrix in="SourceAlpha" type="matrix" values="0 0 0 0 0 0 0 0 0 0 0 0 0 0 0 0 0 0 127 0" result="hardAlpha"/>
<feOffset dx="-2" dy="2"/>
<feGaussianBlur stdDeviation="2.1"/>
<feComposite in2="hardAlpha" operator="arithmetic" k2="-1" k3="1"/>
<feColorMatrix type="matrix" values="0 0 0 0 0 0 0 0 0 0 0 0 0 0 0 0 0 0 0.25 0"/>
<feBlend mode="normal" in2="shape" result="effect2_innerShadow_152_1386"/>
</filter>
</defs>
</svg>
