<svg width="156" height="164" viewBox="0 0 156 164" fill="none" xmlns="http://www.w3.org/2000/svg">
<g filter="url(#filter0_f_152_1386)">
<path d="M77.999 117.152C70.4043 117.152 63.663 115.616 57.775 112.544C51.887 109.472 47.2363 105.248 43.823 99.872C40.495 94.4107 38.831 88.1813 38.831 81.184C38.831 74.1867 40.495 68 43.823 62.624C47.2363 57.248 51.887 53.0667 57.775 50.08C63.663 47.008 70.4043 45.472 77.999 45.472C85.5937 45.472 92.335 47.008 98.223 50.08C104.196 53.0667 108.847 57.248 112.175 62.624C115.503 68 117.167 74.1867 117.167 81.184C117.167 88.1813 115.503 94.4107 112.175 99.872C108.847 105.248 104.196 109.472 98.223 112.544C92.335 115.616 85.5937 117.152 77.999 117.152ZM77.999 97.824C80.815 97.824 83.2897 97.184 85.423 95.904C87.6417 94.624 89.391 92.7467 90.671 90.272C91.951 87.712 92.591 84.6827 92.591 81.184C92.591 77.6853 91.951 74.7413 90.671 72.352C89.391 69.8773 87.6417 68 85.423 66.72C83.2897 65.44 80.815 64.8 77.999 64.8C75.2683 64.8 72.7937 65.44 70.575 66.72C68.4417 68 66.6923 69.8773 65.327 72.352C64.047 74.7413 63.407 77.6853 63.407 81.184C63.407 84.6827 64.047 87.712 65.327 90.272C66.6923 92.7467 68.4417 94.624 70.575 95.904C72.7937 97.184 75.2683 97.824 77.999 97.824Z" fill="#EEEEEE"/>
<g filter="url(#filter1_d_152_1386)">
<path d="M42.6489 131.094C61.8966 149.115 93.1034 149.115 112.351 131.094C114.101 129.456 116.938 129.456 118.688 131.094C120.437 132.732 120.437 135.389 118.688 137.027C95.9403 158.324 59.0597 158.324 36.3123 137.027C34.5626 135.389 34.5626 132.732 36.3123 131.094C38.0621 129.456 40.8991 129.456 42.6489 131.094Z" fill="#EEEEEE"/>
<path d="M55.322 119.229C67.5706 130.697 87.4294 130.697 99.678 119.229C101.428 117.59 104.265 117.59 106.015 119.229C107.764 120.867 107.764 123.523 106.015 125.161C90.2664 139.906 64.7336 139.906 48.9855 125.161C47.2357 123.523 47.2357 120.867 48.9855 119.229C50.7353 117.59 53.5722 117.59 55.322 119.229Z" fill="#EEEEEE"/>
<path d="M112.351 32.9059C93.1034 14.8849 61.8966 14.8849 42.6489 32.9059C40.8991 34.5441 38.0621 34.5441 36.3123 32.9059C34.5626 31.2676 34.5626 28.6114 36.3123 26.9731C59.0597 5.67562 95.9403 5.67562 118.688 26.9731C120.437 28.6114 120.437 31.2676 118.688 32.9059C116.938 34.5441 114.101 34.5441 112.351 32.9059Z" fill="#EEEEEE"/>
<path d="M99.678 44.7713C87.4294 33.3034 67.5706 33.3034 55.322 44.7713C53.5722 46.4096 50.7353 46.4096 48.9855 44.7713C47.2357 43.133 47.2357 40.4769 48.9855 38.8386C64.7336 24.0941 90.2664 24.0941 106.015 38.8386C107.764 40.4769 107.764 43.133 106.015 44.7713C104.265 46.4096 101.428 46.4096 99.678 44.7713Z" fill="#EEEEEE"/>
<circle cx="78" cy="81.5" r="5.5" fill="#EEEEEE"/>
</g>
</g>
<g filter="url(#filter2_i_152_1386)">
<path d="M42.6489 131.094C61.8966 149.115 93.1034 149.115 112.351 131.094C114.101 129.456 116.938 129.456 118.688 131.094C120.437 132.732 120.437 135.389 118.688 137.027C95.9403 158.324 59.0597 158.324 36.3123 137.027C34.5626 135.389 34.5626 132.732 36.3123 131.094C38.0621 129.456 40.8991 129.456 42.6489 131.094Z" fill="#EEEEEE"/>
<path d="M55.322 119.229C67.5706 130.697 87.4294 130.697 99.678 119.229C101.428 117.59 104.265 117.59 106.015 119.229C107.764 120.867 107.764 123.523 106.015 125.161C90.2664 139.906 64.7336 139.906 48.9855 125.161C47.2357 123.523 47.2357 120.867 48.9855 119.229C50.7353 117.59 53.5722 117.59 55.322 119.229Z" fill="#EEEEEE"/>
<path d="M112.351 32.9059C93.1034 14.8849 61.8966 14.8849 42.6489 32.9059C40.8991 34.5441 38.0621 34.5441 36.3123 32.9059C34.5626 31.2676 34.5626 28.6114 36.3123 26.9731C59.0597 5.67562 95.9403 5.67562 118.688 26.9731C120.437 28.6114 120.437 31.2676 118.688 32.9059C116.938 34.5441 114.101 34.5441 112.351 32.9059Z" fill="#EEEEEE"/>
<path d="M99.678 44.7713C87.4294 33.3034 67.5706 33.3034 55.322 44.7713C53.5722 46.4096 50.7353 46.4096 48.9855 44.7713C47.2357 43.133 47.2357 40.4769 48.9855 38.8386C64.7336 24.0941 90.2664 24.0941 106.015 38.8386C107.764 40.4769 107.764 43.133 106.015 44.7713C104.265 46.4096 101.428 46.4096 99.678 44.7713Z" fill="#EEEEEE"/>
<circle cx="78" cy="81.5" r="5.5" fill="#EEEEEE"/>
</g>
<g filter="url(#filter3_di_152_1386)">
<path d="M77.999 117.152C70.4043 117.152 63.663 115.616 57.775 112.544C51.887 109.472 47.2363 105.248 43.823 99.872C40.495 94.4107 38.831 88.1813 38.831 81.184C38.831 74.1867 40.495 68 43.823 62.624C47.2363 57.248 51.887 53.0667 57.775 50.08C63.663 47.008 70.4043 45.472 77.999 45.472C85.5937 45.472 92.335 47.008 98.223 50.08C104.196 53.0667 108.847 57.248 112.175 62.624C115.503 68 117.167 74.1867 117.167 81.184C117.167 88.1813 115.503 94.4107 112.175 99.872C108.847 105.248 104.196 109.472 98.223 112.544C92.335 115.616 85.5937 117.152 77.999 117.152ZM77.999 97.824C80.815 97.824 83.2897 97.184 85.423 95.904C87.6417 94.624 89.391 92.7467 90.671 90.272C91.951 87.712 92.591 84.6827 92.591 81.184C92.591 77.6853 91.951 74.7413 90.671 72.352C89.391 69.8773 87.6417 68 85.423 66.72C83.2897 65.44 80.815 64.8 77.999 64.8C75.2683 64.8 72.7937 65.44 70.575 66.72C68.4417 68 66.6923 69.8773 65.327 72.352C64.047 74.7413 63.407 77.6853 63.407 81.184C63.407 84.6827 64.047 87.712 65.327 90.272C66.6923 92.7467 68.4417 94.624 70.575 95.904C72.7937 97.184 75.2683 97.824 77.999 97.824Z" fill="#EEEEEE"/>
</g>
<defs>
<filter id="filter0_f_152_1386" x="24.8" y="0.8" width="105.4" height="162.4" filterUnits="userSpaceOnUse" color-interpolation-filters="sRGB">
<feFlood flood-opacity="0" result="BackgroundImageFix"/>
<feBlend mode="normal" in="SourceGraphic" in2="BackgroundImageFix" result="shape"/>
<feGaussianBlur stdDeviation="5.1" result="effect1_foregroundBlur_152_1386"/>
</filter>
<filter id="filter1_d_152_1386" x="31" y="11" width="93" height="150" filterUnits="userSpaceOnUse" color-interpolation-filters="sRGB">
<feFlood flood-opacity="0" result="BackgroundImageFix"/>
<feColorMatrix in="SourceAlpha" type="matrix" values="0 0 0 0 0 0 0 0 0 0 0 0 0 0 0 0 0 0 127 0" result="hardAlpha"/>
<feOffset dy="4"/>
<feGaussianBlur stdDeviation="2"/>
<feComposite in2="hardAlpha" operator="out"/>
<feColorMatrix type="matrix" values="0 0 0 0 0 0 0 0 0 0 0 0 0 0 0 0 0 0 0.25 0"/>
<feBlend mode="normal" in2="BackgroundImageFix" result="effect1_dropShadow_152_1386"/>
<feBlend mode="normal" in="SourceGraphic" in2="effect1_dropShadow_152_1386" result="shape"/>
</filter>
<filter id="filter2_i_152_1386" x="33" y="9" width="87" height="144" filterUnits="userSpaceOnUse" color-interpolation-filters="sRGB">
<feFlood flood-opacity="0" result="BackgroundImageFix"/>
<feBlend mode="normal" in="SourceGraphic" in2="BackgroundImageFix" result="shape"/>
<feColorMatrix in="SourceAlpha" type="matrix" values="0 0 0 0 0 0 0 0 0 0 0 0 0 0 0 0 0 0 127 0" result="hardAlpha"/>
<feOffset dx="-2" dy="-2"/>
<feGaussianBlur stdDeviation="1"/>
<feComposite in2="hardAlpha" operator="arithmetic" k2="-1" k3="1"/>
<feColorMatrix type="matrix" values="0 0 0 0 0 0 0 0 0 0 0 0 0 0 0 0 0 0 0.25 0"/>
<feBlend mode="normal" in2="shape" result="effect1_innerShadow_152_1386"/>
</filter>
<filter id="filter3_di_152_1386" x="0.930992" y="7.57198" width="154.136" height="147.48" filterUnits="userSpaceOnUse" color-interpolation-filters="sRGB">
<feFlood flood-opacity="0" result="BackgroundImageFix"/>
<feColorMatrix in="SourceAlpha" type="matrix" values="0 0 0 0 0 0 0 0 0 0 0 0 0 0 0 0 0 0 127 0" result="hardAlpha"/>
<feOffset/>
<feGaussianBlur stdDeviation="18.95"/>
<feComposite in2="hardAlpha" operator="out"/>
<feColorMatrix type="matrix" values="0 0 0 0 0.933333 0 0 0 0 0.933333 0 0 0 0 0.933333 0 0 0 0.62 0"/>
<feBlend mode="normal" in2="BackgroundImageFix" result="effect1_dropShadow_152_1386"/>
<feBlend mode="normal" in="SourceGraphic" in2="effect1_dropShadow_152_1386" result="shape"/>
<feColorMatrix in="SourceAlpha" type="matrix" values="0 0 0 0 0 0 0 0 0 0 0 0 0 0 0 0 0 0 127 0" result="hardAlpha"/>
<feOffset dx="-2" dy="2"/>
<feGaussianBlur stdDeviation="2.1"/>
<feComposite in2="hardAlpha" operator="arithmetic" k2="-1" k3="1"/>
<feColorMatrix type="matrix" values="0 0 0 0 0 0 0 0 0 0 0 0 0 0 0 0 0 0 0.25 0"/>
<feBlend mode="normal" in2="shape" result="effect2_innerShadow_152_1386"/>
</filter>
</defs>
</svg>
